<?xml version="1.0" standalone="no"?>
<svg viewBox="0 0 200 200" xmlns="http://www.w3.org/2000/svg">
  <path fill="#F9A826" d="M34.9,-59.9C48.9,-52.4,66.4,-50.4,75.5,-41.3C84.6,-32.3,85.4,-16.1,83,-1.4C80.6,13.4,75,26.7,65.5,35.1C56,43.6,42.6,47,31,48.8C19.4,50.7,9.7,50.9,-2.1,54.4C-13.8,58,-27.7,65,-37.9,62.4C-48.1,59.8,-54.7,47.6,-61.5,35.6C-68.4,23.6,-75.4,11.8,-74.8,0.3C-74.3,-11.1,-66.1,-22.3,-57.9,-31.9C-49.7,-41.5,-41.5,-49.6,-31.8,-59.5C-22.2,-69.4,-11.1,-81.2,-0.3,-80.7C10.5,-80.1,21,-67.3,34.9,-59.9Z" transform="translate(100 100)" />
</svg>
