<?xml version="1.0" encoding="UTF-8" standalone="no"?>
<!-- Created with Inkscape (http://www.inkscape.org/) -->

<svg
   xmlns:dc="http://purl.org/dc/elements/1.1/"
   xmlns:cc="http://creativecommons.org/ns#"
   xmlns:rdf="http://www.w3.org/1999/02/22-rdf-syntax-ns#"
   xmlns:svg="http://www.w3.org/2000/svg"
   xmlns="http://www.w3.org/2000/svg"
   xmlns:sodipodi="http://sodipodi.sourceforge.net/DTD/sodipodi-0.dtd"
   xmlns:inkscape="http://www.inkscape.org/namespaces/inkscape"
   width="454.76584mm"
   height="95.965553mm"
   viewBox="0 0 454.76584 95.965554"
   version="1.1"
   id="svg8"
   inkscape:version="0.92.3 (2405546, 2018-03-11)"
   sodipodi:docname="Kompas_TV (2011) logo with slogan.svg">
  <defs
     id="defs2" />
  <sodipodi:namedview
     id="base"
     pagecolor="#ffffff"
     bordercolor="#666666"
     borderopacity="1.0"
     inkscape:pageopacity="0.0"
     inkscape:pageshadow="2"
     inkscape:zoom="0.175"
     inkscape:cx="1127.4207"
     inkscape:cy="427.57938"
     inkscape:document-units="mm"
     inkscape:current-layer="text933"
     showgrid="false"
     showguides="true"
     inkscape:guide-bbox="true"
     inkscape:snap-global="false"
     fit-margin-top="0"
     fit-margin-left="0"
     fit-margin-right="0"
     fit-margin-bottom="0"
     inkscape:window-width="1366"
     inkscape:window-height="745"
     inkscape:window-x="-8"
     inkscape:window-y="-8"
     inkscape:window-maximized="1">
    <sodipodi:guide
       position="378.90721,231.1491"
       orientation="0,1"
       id="guide862"
       inkscape:locked="false" />
  </sodipodi:namedview>
  <metadata
     id="metadata5">
    <rdf:RDF>
      <cc:Work
         rdf:about="">
        <dc:format>image/svg+xml</dc:format>
        <dc:type
           rdf:resource="http://purl.org/dc/dcmitype/StillImage" />
        <dc:title></dc:title>
      </cc:Work>
    </rdf:RDF>
  </metadata>
  <g
     inkscape:label="Layer 1"
     inkscape:groupmode="layer"
     id="layer1"
     transform="translate(504.77328,-319.4994)">
    <g
       id="g3582"
       transform="matrix(0.14486848,0,0,0.14486848,-511.57102,313.98166)">
      <path
         style="fill:#90c43a"
         inkscape:connector-curvature="0"
         id="path3584"
         d="M 380.26,324.21 47.875,607.75 V 466.06 Z" />
      <path
         style="fill:#40893f"
         inkscape:connector-curvature="0"
         id="path3586"
         d="M 380.25,324.22 H 47.51 L 47.5,466.5 Z" />
      <path
         style="fill:#bec4bd"
         inkscape:connector-curvature="0"
         id="path3588"
         d="M 618.19,39.563 380.26,324.21 531.75,247.38 Z" />
      <path
         style="fill:#11539c"
         inkscape:connector-curvature="0"
         id="path3590"
         d="M 530.5,248.75 618.5,204 618,39.035 Z" />
      <path
         style="fill:#ec116d"
         inkscape:connector-curvature="0"
         id="path3592"
         d="M 380.25,324.22 H 47.83 L 618.56,39.52 Z" />
      <path
         style="fill:#f8ae1c"
         inkscape:connector-curvature="0"
         id="path3594"
         d="M 257.68,221.28 48.763,324.32 47.873,40.517 Z" />
      <path
         style="fill:#79694f"
         inkscape:connector-curvature="0"
         id="path3596"
         d="M 380.26,324.22 618.58,435.99 456.79,525.45 Z" />
      <path
         style="fill:#664840"
         inkscape:connector-curvature="0"
         id="path3598"
         d="M 380.25,324.21 458.8,525.3 261.87,424 Z" />
      <path
         style="fill:#0c7fbd"
         inkscape:connector-curvature="0"
         id="path3600"
         d="M 456.38,525.5 618,436.24 V 608.5 Z" />
      <path
         style="fill:none;stroke:#ffffff;stroke-width:2;stroke-linecap:butt;stroke-linejoin:miter;stroke-miterlimit:4;stroke-dasharray:none"
         inkscape:connector-curvature="0"
         id="path3602"
         d="m 47.991,40.327 -0.06724,567.37 215.11,-183.39 355.01,183.96 v -172.13 l -235.52,-111.95 235.52,-119.88 v -164.6 l -360.93,180.73 z"
         stroke-miterlimit="4" />
    </g>
    <g
       id="g3604"
       transform="matrix(0.22879518,0,0,0.22879518,-495.95584,-724.19472)">
      <path
         inkscape:connector-curvature="0"
         id="path906"
         d="m 1480.8,4643.1795 c -3.6259,0.084 -7.5816,0.6513 -11.261,1.5737 -3.8847,0.9736 -7.2543,2.3651 -10.917,4.229 -5.3243,2.7096 -10.139,6.3953 -14.457,10.523 -3.347,3.1992 -5.655,6.8495 -7.8678,10.917 -2.5954,4.77 -4.7253,9.8669 -5.9993,15.146 -1.1977,4.9625 -1.4753,10.139 -1.4753,15.244 0,4.0516 0.486,8.1054 1.1801,12.097 0.6662,3.8305 1.5413,8.6024 3.2456,12.097 2.3655,4.8505 5.6126,8.2965 9.5397,11.998 7.3779,6.9545 15.564,11.66 24.292,16.818 5.5286,3.267 11.549,5.626 17.211,8.6547 5.1526,2.7558 10.473,5.2813 15.244,8.6547 2.9413,2.0796 5.8375,4.3307 8.1629,7.081 2.033,2.4044 3.7098,5.1571 4.9175,8.0649 1.1651,2.8048 1.9234,5.7252 2.1639,8.7527 0.4478,5.6398 0.2978,11.611 -1.3771,17.014 -1.2305,3.9695 -3.617,7.5598 -6.196,10.818 -3.0081,3.8014 -6.5339,7.3276 -10.622,9.9333 -3.1024,1.978 -6.4612,3.7999 -9.9821,4.8685 -4.8922,1.4843 -10.161,2.1895 -15.269,2.4095 -2.0865,0.092 -6.0372,-0.3245 -8.0893,-0.7132 -3.2031,-0.6063 -6.1216,-1.4039 -9.1709,-2.5572 -3.8327,-1.4492 -6.122,-3.0383 -9.3923,-5.5073 -3.6888,-2.785 -6.7377,-6.4125 -9.4166,-10.179 -2.9177,-4.1022 -5.1416,-8.691 -7.1059,-13.326 -1.1675,-2.7549 -1.9593,-5.6469 -2.7538,-8.5317 -1.0793,-3.9199 -2.729,-11.9 -2.729,-11.9 h -10.253 l -7.696,56.649 h 7.278 l 16.326,-13.179 c 0,0 5.1666,5.6577 8.261,7.8679 4.5104,3.2219 9.4988,5.905 14.752,7.6712 5.1698,1.7382 10.677,2.1915 16.129,2.3606 6.1298,0.1909 12.31,-0.229 18.293,-1.5738 4.4711,-1.0056 8.9006,-2.4408 12.982,-4.5241 6.3342,-3.2327 12.548,-7.0962 17.506,-12.195 6.6683,-6.8579 11.469,-14.183 15.145,-23.014 2.19,-5.2591 3.1497,-11.036 3.5406,-16.719 0.6315,-9.1808 0.5338,-18.682 -1.9669,-27.538 -1.5458,-5.4748 -3.9357,-11.525 -7.2779,-16.129 -3.1322,-4.315 -7.0833,-8.0342 -11.212,-11.408 -4.8437,-3.9591 -10.277,-7.1734 -15.736,-10.228 -5.1958,-2.9069 -10.809,-4.999 -16.129,-7.6712 -5.6351,-2.8298 -11.27,-5.6782 -16.719,-8.8513 -4.6367,-2.7 -9.9512,-4.6948 -13.572,-8.6547 -2.6917,-2.9432 -4.473,-6.7698 -5.5076,-10.622 -0.7323,-2.7255 -0.703,-5.6524 -0.3933,-8.4577 0.41,-3.7155 0.9812,-7.6414 2.9503,-10.819 3.792,-6.118 9.678,-11.166 16.129,-14.358 6.1655,-3.0516 13.382,-4.0973 20.26,-3.934 5.5324,0.13 11.107,1.6093 16.129,3.934 4.5584,2.1097 8.9533,5.0148 12.195,8.8512 5.5264,6.5396 9.1983,14.742 11.408,23.014 1.0594,3.9663 0.7621,12.294 0.7621,12.294 h 9.0727 l 8.0645,-52.764 h -6.6385 l -12.736,12.736 c 0,0 -2.0963,-2.6247 -3.344,-3.7373 -1.948,-1.7378 -4.1356,-3.2119 -6.3927,-4.5242 -2.8783,-1.6729 -5.9494,-3.0114 -9.0479,-4.229 -1.8914,-0.743 -3.8236,-1.4068 -5.8027,-1.8684 -5.6798,-1.3244 -11.281,-2.4626 -17.112,-2.5572 h -1.5245 z"
         style="fill:#005288" />
      <path
         inkscape:connector-curvature="0"
         id="path898"
         d="m 435.99,4648.1104 v 7.4746 h 23.776 l -36.143,180.17 h -26.186 v 7.4746 h 89.694 v -7.4746 h -23.899 l 34.791,-180.17 h 27.661 v -7.4746 z"
         style="fill:#005288" />
      <path
         inkscape:connector-curvature="0"
         id="path896"
         d="m 546.93,4648.1104 v 7.4746 h 30.955 l -96.111,85.858 57.903,94.316 h -26.186 v 7.4746 h 94.415 v -7.4746 H 583.81 l -70.343,-108.45 78.039,-71.721 h 23.874 v -7.4746 h -68.45 z"
         style="fill:#005288" />
      <path
         inkscape:connector-curvature="0"
         id="path894"
         d="m 845.91,4648.1104 v 7.4746 h 23.899 l -36.365,180.17 h -23.333 v 7.4746 h 59.009 v -7.4746 h -24.464 l 33.61,-168.37 21.243,175.85 h 9.7122 l 91.71,-175.85 -33.66,168.37 h -24.587 v 7.4746 h 87.727 v -7.4746 h -24.71 l 35.75,-179.85 0.05,-0.3208 h 26.677 v -7.4746 h -25.399 -45.019 l -65.008,126.48 -14.359,-126.48 h -72.483 z"
         style="fill:#005288" />
      <path
         inkscape:connector-curvature="0"
         d="m 728.6,4652.8068 c 4.5559,0.038 8.9449,1.1946 13.031,3.614 23.773,14.078 28.347,65.273 10.228,114.36 -18.119,49.081 -52.078,77.463 -75.851,63.386 -23.773,-14.078 -28.348,-65.274 -10.228,-114.36 15.005,-40.645 40.87,-67.105 62.82,-67 z m 0.64,-7.3896 c -31.54,0.4577 -65.659,19.023 -88.686,51.633 -34.273,48.536 -30.978,109.81 7.3516,136.88 38.33,27.066 97.17,9.6637 131.44,-38.872 34.274,-48.536 31.003,-109.81 -7.3268,-136.88 -12.577,-8.881 -27.378,-12.984 -42.781,-12.761 z"
         style="fill:#005288"
         id="path892" />
      <path
         inkscape:connector-curvature="0"
         d="m 1152.97,4656.0032 h 7.1795 c 0.076,0 15.969,0.3856 23.972,2.4831 2.3587,0.6181 5.973,2.5438 7.9419,3.9832 3.6544,2.6723 6.0264,5.6942 7.9658,9.7855 1.9109,4.0312 2.3668,7.9326 2.8524,12.368 0.3844,3.5108 0.1947,8.6469 -0.05,12.17 -0.4315,6.2537 -1.634,11.932 -3.3934,17.949 -1.2499,4.2759 -2.7423,7.6857 -4.991,11.531 -2.3641,4.0431 -5.0964,7.2276 -8.6299,10.302 -2.7854,2.4231 -5.5406,4.2405 -8.9991,5.5321 -3.107,1.1598 -10.59,2.3613 -13.892,2.6797 -10.204,0.9842 -26.825,0 -26.825,0 l 16.867,-88.784 z m 10.5,-7.9308 c -1.8147,0 -2.865,0.038 -2.9012,0.038 h -69.582 v 7.4746 h 24.071 l -34.741,180.17 h -18.44 v 7.4746 h 80.252 v -7.4746 h -23.825 l 16.031,-81.359 c 0,0 24.119,0.7086 36.143,0 4.4902,-0.2635 8.9597,-0.88 13.4,-1.5981 3.7117,-0.6006 7.573,-1.0205 11.236,-1.8689 4.8793,-1.1294 9.3919,-2.7038 13.966,-4.7451 5.6754,-2.5332 11.239,-5.6333 15.908,-9.7364 3.4128,-2.9996 6.4793,-6.464 8.9494,-10.278 3.0921,-4.7739 5.7421,-9.9803 7.1551,-15.49 1.578,-6.1518 1.6669,-12.664 1.3279,-19.006 -0.2369,-4.3943 -0.7182,-8.9049 -2.3113,-13.007 -2.2286,-5.7377 -5.794,-11.371 -10.277,-15.588 -5.4828,-5.1576 -12.721,-8.3402 -19.793,-10.917 -6.5568,-2.3887 -13.569,-2.9523 -20.53,-3.4422 -8.3843,-0.5901 -20.501,-0.6539 -26.038,-0.639 z"
         style="fill:#005288"
         id="path890" />
      <path
         inkscape:connector-curvature="0"
         d="m 1314.04,4699.0552 0.5903,76.515 h -50.256 l 49.666,-76.515 z m 24.3,-55.064 -123.99,191.75 h -15.957 v 7.4746 h 55.469 v -7.4746 h -28.177 l 34.078,-51.412 h 54.657 l 1.303,51.412 h -25.276 v 7.4746 h 89.301 v -7.4746 h -26.406 l -3.1963,-191.75 h -11.802 z"
         style="fill:#005288"
         id="path866" />
    </g>
    <path
       sodipodi:nodetypes="ssccssccccccccccsccsccccccccs"
       inkscape:connector-curvature="0"
       id="path856"
       d="m -129.68254,338.03018 c -3.21384,0 -4.45487,1.01468 -4.96436,4.0588 l -1.05294,6.29125 h 6.35619 l 0.50951,-3.04427 c 0.16983,-1.01472 0.82044,-1.48808 1.82029,-1.48808 h 10.14132 l -7.01949,41.94149 h 7.14184 l 7.01947,-41.94149 h 6.61885 c 1.62942,0.0237 5.114205,-0.0192 6.284143,-0.0422 3.350241,-0.12488 3.309411,0.78548 3.706541,2.70086 l 8.338732,39.28291 h 7.570479 l 22.625092,-40.45342 c 0.632301,-1.21763 1.320376,-1.48808 2.605903,-1.48808 h 0.999836 l 0.973676,-5.81768 h -3.999349 c -3.570903,0 -4.838166,0.74394 -6.584397,3.92339 l -15.994693,29.4269 c -1.430083,2.57061 -3.026604,6.56165 -3.026604,6.56165 h -0.142728 c 0,0 -0.332022,-3.99104 -0.830236,-6.56165 l -6.144673,-29.4269 c -0.610566,-3.17945 -1.700221,-3.92339 -5.271121,-3.92339 h -3.999352 z"
       style="font-style:normal;font-variant:normal;font-weight:normal;font-stretch:normal;font-size:medium;line-height:1.25;font-family:Museo;-inkscape-font-specification:Museo;letter-spacing:0px;word-spacing:0px;fill:#e61b33;fill-opacity:1;stroke:none;stroke-width:0.36201701" />
    <g
       aria-label="Inspirasi Indonesia"
       style="font-style:normal;font-variant:normal;font-weight:bold;font-stretch:normal;font-size:50.79999924px;line-height:1.25;font-family:Museo;-inkscape-font-specification:'Museo Bold';letter-spacing:0px;word-spacing:0px;fill:#005288;fill-opacity:0.99607843;stroke:none;stroke-width:0.26458332"
       id="text933">
      <path
         d="m -233.89383,415.46495 h 2.83405 v -4.74593 c 0,-0.5848 -0.045,-0.98967 -0.045,-0.98967 h 0.045 c 0,0 1.01217,1.507 3.2839,1.507 3.014,0 5.26325,-2.36171 5.26325,-6.0055 0,-3.55382 -2.00184,-6.00549 -5.1058,-6.00549 -2.6766,0 -3.64379,1.82189 -3.64379,1.82189 h -0.045 c 0,0 0,-0.17993 0,-0.44985 0,-0.62979 -0.38237,-1.10213 -1.43951,-1.10213 h -2.54166 v 2.42919 h 0.89971 c 0.31489,0 0.49483,0.15745 0.49483,0.49483 z m 2.76657,-10.16662 c 0,-2.54165 1.39453,-3.6213 2.87904,-3.6213 1.68694,0 2.85655,1.41704 2.85655,3.59881 0,2.27174 -1.32706,3.55381 -2.90153,3.55381 -1.88937,0 -2.83406,-1.75441 -2.83406,-3.53132 z"
         style="fill:#005288;fill-opacity:0.99607843;stroke-width:0.11714841"
         id="path943"
         inkscape:connector-curvature="0" />
      <g
         id="g991">
        <path
           inkscape:connector-curvature="0"
           id="path937"
           style="fill:#005288;fill-opacity:0.99607843;stroke-width:0.11714841"
           d="m -267.5904,410.96645 h 5.98301 v -2.49668 h -1.59698 v -10.97634 h 1.59698 v -2.49666 h -5.98301 v 2.49666 h 1.59697 v 10.97634 h -1.59697 z" />
        <path
           inkscape:connector-curvature="0"
           id="path939"
           style="fill:#005288;fill-opacity:0.99607843;stroke-width:0.11714841"
           d="m -258.89038,410.96645 h 2.83406 v -5.26325 c 0,-0.53982 0.0675,-1.05715 0.22492,-1.52949 0.40487,-1.37204 1.55199,-2.33923 3.08147,-2.33923 1.43953,0 1.7994,0.94469 1.7994,2.33923 v 5.26324 c 0,1.07964 0.44985,1.5295 1.52949,1.5295 h 2.7216 v -2.4067 h -0.89971 c -0.31489,0 -0.49483,-0.17995 -0.49483,-0.49484 v -4.476 c 0,-3.03649 -1.46201,-4.36355 -4.00366,-4.36355 -2.31673,0 -3.55381,1.41702 -4.04865,2.3842 h -0.0449 c 0,0 0.0449,-0.24742 0.0449,-0.49483 v -0.33739 c 0,-0.80973 -0.49483,-1.28207 -1.507,-1.28207 h -2.63162 v 2.42919 h 0.89969 c 0.3149,0 0.49484,0.15745 0.49484,0.49483 z" />
        <path
           inkscape:connector-curvature="0"
           id="path941"
           style="fill:#005288;fill-opacity:0.99607843;stroke-width:0.11714841"
           d="m -245.74175,409.18954 c 0,0 1.61945,2.04681 4.7684,2.04681 2.49668,0 4.40853,-1.34955 4.40853,-3.50882 0,-3.82373 -6.09546,-3.46385 -6.09546,-5.26326 0,-0.67477 0.69726,-1.03465 1.70943,-1.03465 0.62978,0 1.43952,0.26992 1.43952,0.80973 v 0.56232 h 2.51915 v -1.19211 c 0,-1.86687 -2.47416,-2.3842 -4.02616,-2.3842 -2.38419,0 -4.45351,1.05715 -4.45351,3.35138 0,3.71126 6.05049,3.68877 6.05049,5.30823 0,0.76475 -0.67478,1.12463 -1.55199,1.12463 -1.95684,0 -3.41885,-1.68694 -3.41885,-1.68694 z" />
        <path
           inkscape:connector-curvature="0"
           id="path945"
           style="fill:#005288;fill-opacity:0.99607843;stroke-width:0.11714841"
           d="m -219.69896,397.6284 h 2.47417 v -2.63163 h -2.47417 z m -0.13496,11.80855 c 0,1.07964 0.44985,1.5295 1.507,1.5295 h 2.72158 v -2.4067 h -0.89969 c -0.31489,0 -0.49483,-0.17995 -0.49483,-0.49484 v -7.04015 c 0,-1.05715 -0.44985,-1.52949 -1.507,-1.52949 h -2.7216 v 2.42919 h 0.89971 c 0.3149,0 0.49483,0.15745 0.49483,0.49483 z" />
        <path
           inkscape:connector-curvature="0"
           id="path947"
           style="fill:#005288;fill-opacity:0.99607843;stroke-width:0.11714841"
           d="m -213.2025,410.96645 h 2.83407 v -4.54349 c 0,-0.67478 0.09,-1.30457 0.24741,-1.86688 0.51732,-1.70943 1.91186,-2.4067 3.12645,-2.4067 0.40487,0 0.69727,0.0449 0.69727,0.0449 v -2.81156 c 0,0 -0.26991,-0.045 -0.51733,-0.045 -1.75442,0 -3.12645,1.30456 -3.64378,2.94651 h -0.045 c 0,0 0.045,-0.2924 0.045,-0.71975 v -0.67478 c 0,-0.96717 -0.51733,-1.39453 -1.52949,-1.39453 h -2.60913 v 2.42918 h 0.89969 c 0.3149,0 0.49484,0.15745 0.49484,0.49484 z" />
        <path
           inkscape:connector-curvature="0"
           id="path949"
           style="fill:#005288;fill-opacity:0.99607843;stroke-width:0.11714841"
           d="m -205.71672,407.66005 c 0,2.29422 1.86688,3.5763 3.9137,3.5763 2.58663,0 3.46384,-2.02433 3.46384,-2.02433 h 0.0449 c 0,0 -0.0225,0.20243 -0.0225,0.49484 0,0.67478 0.40486,1.25959 1.46202,1.25959 h 2.56414 v -2.4067 h -0.8997 c -0.3149,0 -0.49483,-0.17995 -0.49483,-0.49484 v -4.27358 c 0,-2.56413 -1.12463,-4.56597 -4.94836,-4.56597 -1.19211,0 -4.20609,0.22493 -4.20609,2.36171 v 1.2146 h 2.65411 v -0.6073 c 0,-0.62979 1.01216,-0.76475 1.52949,-0.76475 1.46201,0 2.1143,0.6073 2.1143,2.24926 v 0.09 h -0.35989 c -1.86687,0 -6.81522,0.29241 -6.81522,3.89121 z m 2.87904,-0.13496 c 0,-1.59697 2.36172,-1.7994 3.84623,-1.7994 h 0.49483 v 0.26992 c 0,1.39452 -1.07964,3.01399 -2.60913,3.01399 -1.16961,0 -1.73193,-0.71977 -1.73193,-1.48451 z" />
        <path
           inkscape:connector-curvature="0"
           id="path951"
           style="fill:#005288;fill-opacity:0.99607843;stroke-width:0.11714841"
           d="m -193.28856,409.18954 c 0,0 1.61946,2.04681 4.76841,2.04681 2.49667,0 4.40854,-1.34955 4.40854,-3.50882 0,-3.82373 -6.09547,-3.46385 -6.09547,-5.26326 0,-0.67477 0.69726,-1.03465 1.70943,-1.03465 0.62979,0 1.43952,0.26992 1.43952,0.80973 v 0.56232 h 2.51915 v -1.19211 c 0,-1.86687 -2.47417,-2.3842 -4.02615,-2.3842 -2.3842,0 -4.45351,1.05715 -4.45351,3.35138 0,3.71126 6.05047,3.68877 6.05047,5.30823 0,0.76475 -0.67478,1.12463 -1.55198,1.12463 -1.95684,0 -3.41886,-1.68694 -3.41886,-1.68694 z" />
        <path
           inkscape:connector-curvature="0"
           id="path953"
           style="fill:#005288;fill-opacity:0.99607843;stroke-width:0.11714841"
           d="m -181.21571,397.6284 h 2.47418 v -2.63163 h -2.47418 z m -0.13495,11.80855 c 0,1.07964 0.44985,1.5295 1.50699,1.5295 h 2.7216 v -2.4067 h -0.89971 c -0.31489,0 -0.49484,-0.17995 -0.49484,-0.49484 v -7.04015 c 0,-1.05715 -0.44985,-1.52949 -1.50699,-1.52949 h -2.72159 v 2.42919 h 0.8997 c 0.31489,0 0.49484,0.15745 0.49484,0.49483 z" />
        <path
           inkscape:connector-curvature="0"
           id="path955"
           style="font-style:normal;font-variant:normal;font-weight:300;font-stretch:normal;font-family:Museo;-inkscape-font-specification:'Museo Light';fill:#e61b33;fill-opacity:1;stroke-width:0.11714841"
           d="m -169.5769,410.96645 h 4.52099 v -1.39455 h -1.507 v -13.02315 h 1.507 v -1.39453 h -4.52099 v 1.39453 h 1.4845 v 13.02315 h -1.4845 z" />
        <path
           inkscape:connector-curvature="0"
           id="path957"
           style="font-style:normal;font-variant:normal;font-weight:300;font-stretch:normal;font-family:Museo;-inkscape-font-specification:'Museo Light';fill:#e61b33;fill-opacity:1;stroke-width:0.11714841"
           d="m -162.06511,410.96645 h 1.52949 v -5.4207 c 0,-0.53982 0.045,-1.05715 0.17994,-1.52949 0.51733,-1.86688 2.18177,-3.19393 4.11613,-3.19393 2.18177,0 2.45168,1.57447 2.45168,3.35138 v 5.42069 c 0,0.96717 0.40487,1.37205 1.37204,1.37205 h 1.59697 v -1.32706 h -0.94468 c -0.3149,0 -0.49484,-0.15745 -0.49484,-0.49484 v -5.37571 c 0,-2.78906 -0.98967,-4.38603 -3.80123,-4.38603 -2.65411,0 -4.09364,1.82189 -4.4985,2.85654 h -0.0449 c 0,0 0.0449,-0.35988 0.0449,-0.80973 v -0.51732 c 0,-0.85472 -0.42736,-1.25959 -1.37205,-1.25959 h -1.57447 v 1.32707 h 0.94468 c 0.31489,0 0.49484,0.17993 0.49484,0.49483 z" />
        <path
           inkscape:connector-curvature="0"
           id="path959"
           style="font-style:normal;font-variant:normal;font-weight:300;font-stretch:normal;font-family:Museo;-inkscape-font-specification:'Museo Light';fill:#e61b33;fill-opacity:1;stroke-width:0.11714841"
           d="m -149.41484,405.29833 c 0,3.50884 1.88937,5.93802 4.92586,5.93802 2.969,0 3.8912,-2.24925 3.8912,-2.24925 h 0.0449 c 0,0 -0.0449,0.2924 -0.0449,0.71976 0,0.83223 0.40486,1.25959 1.34955,1.25959 h 1.57447 v -1.32706 h -0.94468 c -0.3149,0 -0.49484,-0.15745 -0.49484,-0.49484 v -12.61829 c 0,-0.96718 -0.40486,-1.37204 -1.37205,-1.37204 h -1.59695 v 1.32706 h 0.94468 c 0.31489,0 0.49482,0.17993 0.49482,0.49483 v 3.66627 c 0,0.47235 0.045,0.85472 0.045,0.85472 h -0.045 c 0,0 -0.94467,-2.11429 -3.68876,-2.11429 -2.96901,0 -5.0833,2.33921 -5.0833,5.91552 z m 5.15078,4.56598 c -2.11429,0 -3.5763,-1.77691 -3.5763,-4.56598 0,-2.85654 1.64194,-4.54348 3.64378,-4.54348 2.42918,0 3.5988,2.24924 3.5988,4.54348 0,3.21643 -1.77691,4.56598 -3.66628,4.56598 z" />
        <path
           inkscape:connector-curvature="0"
           id="path961"
           style="font-style:normal;font-variant:normal;font-weight:300;font-stretch:normal;font-family:Museo;-inkscape-font-specification:'Museo Light';fill:#e61b33;fill-opacity:1;stroke-width:0.11714841"
           d="m -136.23669,405.25335 c 0,3.41886 2.6766,5.983 5.983,5.983 3.28391,0 5.96051,-2.56414 5.96051,-5.983 0,-3.35138 -2.6766,-5.87054 -5.983,-5.87054 -3.28391,0 -5.96051,2.51916 -5.96051,5.87054 z m 1.57448,0 c 0,-2.56414 1.97934,-4.47601 4.40852,-4.47601 2.4067,0 4.38604,1.91187 4.38604,4.47601 0,2.63162 -1.97934,4.61096 -4.38604,4.61096 -2.42918,0 -4.40852,-1.97934 -4.40852,-4.61096 z" />
        <path
           inkscape:connector-curvature="0"
           id="path963"
           style="font-style:normal;font-variant:normal;font-weight:300;font-stretch:normal;font-family:Museo;-inkscape-font-specification:'Museo Light';fill:#e61b33;fill-opacity:1;stroke-width:0.11714841"
           d="m -121.42925,410.96645 h 1.52948 v -5.4207 c 0,-0.53982 0.045,-1.05715 0.17994,-1.52949 0.51733,-1.86688 2.18178,-3.19393 4.11613,-3.19393 2.18178,0 2.45168,1.57447 2.45168,3.35138 v 5.42069 c 0,0.96717 0.40487,1.37205 1.37205,1.37205 h 1.59696 v -1.32706 h -0.94469 c -0.31488,0 -0.49483,-0.15745 -0.49483,-0.49484 v -5.37571 c 0,-2.78906 -0.98967,-4.38603 -3.80123,-4.38603 -2.65412,0 -4.09363,1.82189 -4.4985,2.85654 h -0.045 c 0,0 0.045,-0.35988 0.045,-0.80973 v -0.51732 c 0,-0.85472 -0.42736,-1.25959 -1.37204,-1.25959 h -1.57448 v 1.32707 h 0.94469 c 0.31489,0 0.49484,0.17993 0.49484,0.49483 z" />
        <path
           inkscape:connector-curvature="0"
           id="path965"
           style="font-style:normal;font-variant:normal;font-weight:300;font-stretch:normal;font-family:Museo;-inkscape-font-specification:'Museo Light';fill:#e61b33;fill-opacity:1;stroke-width:0.11714841"
           d="m -108.82397,405.32082 c 0,3.48635 2.56415,5.91553 5.91553,5.91553 2.56414,0 4.206081,-1.61946 4.206081,-1.61946 l -0.742247,-1.14712 c 0,0 -1.327054,1.39454 -3.396364,1.39454 -2.33922,0 -4.34105,-1.64195 -4.38603,-4.49849 h 8.682091 c 0,0 0.045,-0.49484 0.045,-0.76476 0,-2.81156 -1.619451,-5.21825 -4.745911,-5.21825 -3.03648,0 -5.57814,2.22675 -5.57814,5.93801 z m 1.66444,-1.16961 c 0.38238,-2.27174 2.02433,-3.48633 3.89121,-3.48633 1.66444,0 3.10396,1.14712 3.19393,3.48633 z" />
        <path
           inkscape:connector-curvature="0"
           id="path967"
           style="font-style:normal;font-variant:normal;font-weight:300;font-stretch:normal;font-family:Museo;-inkscape-font-specification:'Museo Light';fill:#e61b33;fill-opacity:1;stroke-width:0.11714841"
           d="m -96.726881,409.25701 c 0,0 1.394524,1.97934 4.341026,1.97934 2.249238,0 3.958659,-1.28208 3.958659,-3.17144 0,-3.75625 -6.342844,-3.17144 -6.342844,-5.7131 0,-1.10213 0.944674,-1.64194 2.519135,-1.64194 0.742244,0 1.956838,0.31489 1.956838,1.14711 v 0.53982 h 1.439511 v -0.96718 c 0,-1.59696 -2.294225,-2.04681 -3.441329,-2.04681 -2.271728,0 -4.026136,1.01216 -4.026136,3.05898 0,3.64378 6.342854,3.19393 6.342854,5.6681 0,1.19211 -1.124624,1.7994 -2.384198,1.7994 -2.226738,0 -3.486319,-1.70942 -3.486319,-1.70942 z" />
        <path
           inkscape:connector-curvature="0"
           id="path969"
           style="font-style:normal;font-variant:normal;font-weight:300;font-stretch:normal;font-family:Museo;-inkscape-font-specification:'Museo Light';fill:#e61b33;fill-opacity:1;stroke-width:0.11714841"
           d="m -85.470504,397.08858 h 1.484491 v -1.93436 h -1.484491 z m 0.045,12.50582 c 0,0.96717 0.404867,1.37205 1.372041,1.37205 h 1.596951 v -1.32706 h -0.944674 c -0.314897,0 -0.494837,-0.15745 -0.494837,-0.49484 v -8.11979 c 0,-0.96718 -0.404867,-1.37205 -1.372031,-1.37205 h -1.596961 v 1.32707 h 0.944674 c 0.314897,0 0.494837,0.17993 0.494837,0.49483 z" />
        <path
           inkscape:connector-curvature="0"
           id="path971"
           style="font-style:normal;font-variant:normal;font-weight:300;font-stretch:normal;font-family:Museo;-inkscape-font-specification:'Museo Light';fill:#e61b33;fill-opacity:1;stroke-width:0.11714841"
           d="m -80.928114,407.88497 c 0,2.24925 1.956848,3.35138 3.846215,3.35138 2.834052,0 3.77874,-2.45169 3.756248,-2.45169 h 0.04498 c 0,0 -0.02249,0.33739 -0.02249,0.83223 0,0.9222 0.38237,1.34956 1.349549,1.34956 h 1.551986 v -1.32706 h -0.944687 c -0.314896,0 -0.494834,-0.15745 -0.494834,-0.49484 v -5.42069 c 0,-2.42919 -0.854714,-4.34105 -4.431024,-4.34105 -0.98967,0 -3.688766,0.33739 -3.688766,1.91186 v 1.07964 h 1.462013 v -0.71976 c 0,-0.83222 1.641953,-0.98967 2.204262,-0.98967 2.069313,0 2.924027,0.83222 2.924027,3.19393 v 0.13495 h -0.629792 c -1.956848,0 -6.927689,0.13496 -6.927689,3.89121 z m 1.574471,-0.09 c 0,-2.54164 3.553817,-2.58662 5.330726,-2.58662 h 0.652283 v 0.51732 c 0,1.95684 -1.304565,4.20609 -3.463844,4.20609 -1.686936,0 -2.519165,-1.07963 -2.519165,-2.13679 z" />
      </g>
    </g>
  </g>
</svg>
